<?xml version="1.0" standalone="no"?>
<!DOCTYPE svg PUBLIC "-//W3C//DTD SVG 20010904//EN"
 "http://www.w3.org/TR/2001/REC-SVG-20010904/DTD/svg10.dtd">
<svg version="1.0" xmlns="http://www.w3.org/2000/svg"
 width="700.000000pt" height="700.000000pt" viewBox="0 0 700.000000 700.000000"
 preserveAspectRatio="xMidYMid meet">
<metadata>
Created by potrace 1.14, written by Peter Selinger 2001-2017
</metadata>
<g transform="translate(0.000000,700.000000) scale(0.100000,-0.100000)"
fill="#000000" stroke="none">
<path d="M3454 6873 c-109 -69 -278 -175 -374 -236 -96 -61 -205 -129 -241
-151 -36 -23 -165 -104 -287 -181 -122 -77 -230 -145 -239 -150 -10 -6 -49
-31 -88 -55 -38 -25 -77 -49 -87 -55 -31 -17 -913 -574 -923 -582 -9 -8 -112
-72 -157 -98 -10 -5 -65 -40 -124 -77 l-106 -67 69 -44 c37 -24 185 -117 328
-207 143 -90 287 -180 320 -201 134 -85 236 -149 350 -221 66 -41 183 -115
260 -164 77 -49 147 -93 157 -99 64 -36 274 -171 276 -177 2 -4 7 -8 12 -8 4
0 91 -52 192 -116 100 -64 230 -146 288 -182 58 -35 148 -92 201 -126 52 -34
103 -65 112 -71 21 -13 158 -99 216 -136 49 -32 44 -33 141 30 30 20 63 40 72
46 25 14 132 81 208 130 88 57 406 258 427 270 10 6 49 31 88 56 38 25 77 48
85 52 8 4 103 63 210 131 107 68 229 146 270 172 41 25 91 57 110 69 115 73
171 109 420 265 151 95 286 179 300 188 14 9 33 21 43 27 14 8 203 128 389
247 24 15 58 36 77 46 l35 19 -70 45 c-104 67 -127 82 -146 93 -19 11 -293
183 -398 250 -36 23 -225 142 -420 264 -195 123 -372 235 -394 249 -21 15 -47
31 -57 37 -11 5 -172 107 -359 225 -187 118 -348 220 -358 225 -17 9 -100 62
-254 162 -37 23 -72 43 -77 43 -5 0 -11 3 -13 8 -2 6 -200 132 -274 175 -5 3
-100 -51 -210 -120z"/>
<path d="M599 4763 c0 -10 -1 -756 -2 -1657 l-2 -1639 37 -26 c20 -14 79 -53
132 -86 53 -33 145 -90 204 -127 59 -38 138 -87 175 -110 38 -24 94 -59 125
-80 32 -20 246 -155 477 -300 231 -145 480 -302 553 -349 73 -46 140 -88 150
-94 10 -5 119 -74 243 -153 l226 -142 247 0 246 0 0 1508 -1 1507 -56 35 c-31
19 -71 44 -89 55 -18 11 -84 52 -146 91 -62 39 -165 104 -228 144 -63 39 -131
82 -150 95 -33 22 -1168 736 -1745 1098 -148 93 -292 184 -320 202 -76 48 -75
48 -76 28z"/>
<path d="M6059 4372 c-355 -224 -674 -425 -709 -447 -35 -22 -172 -108 -304
-192 -133 -83 -299 -188 -371 -233 -71 -45 -211 -132 -310 -195 -99 -63 -244
-154 -322 -202 l-142 -88 -1 -1507 0 -1508 250 0 250 0 47 33 c27 19 98 64
158 101 100 61 242 150 685 431 85 54 241 151 345 217 105 66 244 153 310 195
66 42 246 155 400 252 154 96 300 189 325 206 l45 30 -1 1653 c-1 909 -3 1655
-5 1657 -3 2 -295 -180 -650 -403z"/>
</g>
</svg>
